<?xml version="1.0" encoding="utf-8" ?>
<svg baseProfile="full" height="100%" version="1.1" viewBox="0,0,1300,800" width="100%" xmlns="http://www.w3.org/2000/svg" xmlns:ev="http://www.w3.org/2001/xml-events" xmlns:xlink="http://www.w3.org/1999/xlink"><defs /><line stroke="black" stroke-width="5" x1="50" x2="1300" y1="750" y2="750" /><line stroke="black" stroke-width="5" x1="50" x2="50" y1="750" y2="25" /><text fill="#133046" font-family="Verdana" text-anchor="middle" x="140" y="770">2013-1</text><text fill="#133046" font-family="Verdana" text-anchor="middle" x="30" y="655.0">1</text><text fill="#133046" font-family="Verdana" text-anchor="middle" x="260" y="770">2013-2</text><text fill="#133046" font-family="Verdana" text-anchor="middle" x="30" y="555.0">2</text><text fill="#133046" font-family="Verdana" text-anchor="middle" x="380" y="770">2014-1</text><text fill="#133046" font-family="Verdana" text-anchor="middle" x="30" y="455.0">3</text><text fill="#133046" font-family="Verdana" text-anchor="middle" x="500" y="770">2014-2</text><text fill="#133046" font-family="Verdana" text-anchor="middle" x="30" y="355.0">4</text><text fill="#133046" font-family="Verdana" text-anchor="middle" x="620" y="770">2015-1</text><text fill="#133046" font-family="Verdana" text-anchor="middle" x="30" y="255.0">5</text><text fill="#133046" font-family="Verdana" text-anchor="middle" x="740" y="770">2015-2</text><text fill="#133046" font-family="Verdana" text-anchor="middle" x="30" y="155.0">6</text><text fill="#133046" font-family="Verdana" text-anchor="middle" x="860" y="770">2016-1</text><text fill="#133046" font-family="Verdana" text-anchor="middle" x="30" y="55.0">7</text><text fill="#133046" font-family="Verdana" text-anchor="middle" x="980" y="770">2016-2</text><text fill="#133046" font-family="Verdana" text-anchor="middle" x="1100" y="770">2017-1</text><text fill="#133046" font-family="Verdana" text-anchor="middle" x="1220" y="770">2017-2</text><rect fill="#D9D9D9" height="725" width="1250" x="50" y="25" /><line stroke="white" stroke-width="1" x1="50" x2="1300" y1="650.0" y2="650.0" /><line stroke="white" stroke-width="1" x1="50" x2="1300" y1="550.0" y2="550.0" /><line stroke="white" stroke-width="1" x1="50" x2="1300" y1="450.0" y2="450.0" /><line stroke="white" stroke-width="1" x1="50" x2="1300" y1="350.0" y2="350.0" /><line stroke="white" stroke-width="1" x1="50" x2="1300" y1="250.0" y2="250.0" /><line stroke="white" stroke-width="1" x1="50" x2="1300" y1="150.0" y2="150.0" /><line stroke="white" stroke-width="1" x1="50" x2="1300" y1="50.0" y2="50.0" /><line stroke="white" stroke-width="1" x1="140" x2="140" y1="25" y2="750" /><line stroke="white" stroke-width="1" x1="260" x2="260" y1="25" y2="750" /><line stroke="white" stroke-width="1" x1="380" x2="380" y1="25" y2="750" /><line stroke="white" stroke-width="1" x1="500" x2="500" y1="25" y2="750" /><line stroke="white" stroke-width="1" x1="620" x2="620" y1="25" y2="750" /><line stroke="white" stroke-width="1" x1="740" x2="740" y1="25" y2="750" /><line stroke="white" stroke-width="1" x1="860" x2="860" y1="25" y2="750" /><line stroke="white" stroke-width="1" x1="980" x2="980" y1="25" y2="750" /><line stroke="white" stroke-width="1" x1="1100" x2="1100" y1="25" y2="750" /><line stroke="white" stroke-width="1" x1="1220" x2="1220" y1="25" y2="750" /><line stroke="#15959F" stroke-width="3" x1="140" x2="260" y1="122.0" y2="152.0" /><line stroke="#F26144" stroke-width="3" x1="140" x2="260" y1="340.0" y2="319.0" /><line stroke="#15959F" stroke-width="3" x1="260" x2="380" y1="152.0" y2="172.0" /><line stroke="#F26144" stroke-width="3" x1="260" x2="380" y1="319.0" y2="279.0" /><line stroke="#15959F" stroke-width="3" x1="380" x2="500" y1="172.0" y2="142.0" /><line stroke="#F26144" stroke-width="3" x1="380" x2="500" y1="279.0" y2="242.0" /><line stroke="#15959F" stroke-width="3" x1="500" x2="620" y1="142.0" y2="127.0" /><line stroke="#F26144" stroke-width="3" x1="500" x2="620" y1="242.0" y2="240.0" /><line stroke="#15959F" stroke-width="3" x1="620" x2="740" y1="127.0" y2="143.0" /><line stroke="#F26144" stroke-width="3" x1="620" x2="740" y1="240.0" y2="235.0" /><line stroke="#15959F" stroke-width="3" x1="740" x2="860" y1="143.0" y2="178.0" /><line stroke="#F26144" stroke-width="3" x1="740" x2="860" y1="235.0" y2="184.0" /><line stroke="#15959F" stroke-width="3" x1="860" x2="980" y1="178.0" y2="171.0" /><line stroke="#F26144" stroke-width="3" x1="860" x2="980" y1="184.0" y2="111.0" /><line stroke="#15959F" stroke-width="3" x1="980" x2="1100" y1="171.0" y2="258.99999999999994" /><line stroke="#F26144" stroke-width="3" x1="980" x2="1100" y1="111.0" y2="88.0" /><line stroke="#15959F" stroke-width="3" x1="1100" x2="1220" y1="258.99999999999994" y2="304.0" /><line stroke="#F26144" stroke-width="3" x1="1100" x2="1220" y1="88.0" y2="166.0" /><line stroke="#15959F" stroke-width="6" x1="140" x2="140" y1="88.8822523301" y2="155.11774767" /><line stroke="#F26144" stroke-width="6" x1="140" x2="140" y1="322.6447518" y2="357.3552482" /><line stroke="#15959F" stroke-width="6" x1="260" x2="260" y1="124.416566276" y2="179.583433724" /><line stroke="#F26144" stroke-width="6" x1="260" x2="260" y1="308.130591354" y2="329.869408646" /><line stroke="#15959F" stroke-width="6" x1="380" x2="380" y1="148.802750452" y2="195.197249548" /><line stroke="#F26144" stroke-width="6" x1="380" x2="380" y1="245.981672348" y2="312.018327652" /><line stroke="#15959F" stroke-width="6" x1="500" x2="500" y1="124.54396309" y2="159.45603691" /><line stroke="#F26144" stroke-width="6" x1="500" x2="500" y1="195.454567649" y2="288.545432351" /><line stroke="#15959F" stroke-width="6" x1="620" x2="620" y1="83.446029773" y2="170.553970227" /><line stroke="#F26144" stroke-width="6" x1="620" x2="620" y1="212.243870985" y2="267.756129015" /><line stroke="#15959F" stroke-width="6" x1="740" x2="740" y1="101.754711919" y2="184.245288081" /><line stroke="#F26144" stroke-width="6" x1="740" x2="740" y1="215.559379736" y2="254.440620264" /><line stroke="#15959F" stroke-width="6" x1="860" x2="860" y1="136.447821339" y2="219.552178661" /><line stroke="#F26144" stroke-width="6" x1="860" x2="860" y1="150.885617048" y2="217.114382952" /><line stroke="#15959F" stroke-width="6" x1="980" x2="980" y1="129.238867257" y2="212.761132743" /><line stroke="#F26144" stroke-width="6" x1="980" x2="980" y1="97.6612745124" y2="124.338725488" /><line stroke="#15959F" stroke-width="6" x1="1100" x2="1100" y1="243.334323542" y2="274.665676458" /><line stroke="#F26144" stroke-width="6" x1="1100" x2="1100" y1="78.3175416345" y2="97.6824583655" /><line stroke="#15959F" stroke-width="6" x1="1220" x2="1220" y1="273.51934833" y2="334.48065167" /><line stroke="#F26144" stroke-width="6" x1="1220" x2="1220" y1="107.161259843" y2="224.838740157" /><circle color="#15959F" cx="140" cy="122.0" r="5" /><circle color="#F26144" cx="140" cy="340.0" r="5" /><circle color="#15959F" cx="260" cy="152.0" r="5" /><circle color="#F26144" cx="260" cy="319.0" r="5" /><circle color="#15959F" cx="380" cy="172.0" r="5" /><circle color="#F26144" cx="380" cy="279.0" r="5" /><circle color="#15959F" cx="500" cy="142.0" r="5" /><circle color="#F26144" cx="500" cy="242.0" r="5" /><circle color="#15959F" cx="620" cy="127.0" r="5" /><circle color="#F26144" cx="620" cy="240.0" r="5" /><circle color="#15959F" cx="740" cy="143.0" r="5" /><circle color="#F26144" cx="740" cy="235.0" r="5" /><circle color="#15959F" cx="860" cy="178.0" r="5" /><circle color="#F26144" cx="860" cy="184.0" r="5" /><circle color="#15959F" cx="980" cy="171.0" r="5" /><circle color="#F26144" cx="980" cy="111.0" r="5" /><circle color="#15959F" cx="1100" cy="258.99999999999994" r="5" /><circle color="#F26144" cx="1100" cy="88.0" r="5" /><circle color="#15959F" cx="1220" cy="304.0" r="5" /><circle color="#F26144" cx="1220" cy="166.0" r="5" /></svg>